<svg xmlns="http://www.w3.org/2000/svg" width="25" height="24" viewBox="0 0 25 24" fill="none">
  <path d="M22.7 17.6334L14.5016 3.39563C14.2967 3.04681 14.0042 2.75758 13.6532 2.55662C13.3021 2.35566 12.9046 2.24994 12.5 2.24994C12.0955 2.24994 11.698 2.35566 11.3469 2.55662C10.9958 2.75758 10.7033 3.04681 10.4985 3.39563L2.30003 17.6334C2.10291 17.9708 1.99902 18.3546 1.99902 18.7453C1.99902 19.1361 2.10291 19.5198 2.30003 19.8572C2.50228 20.2081 2.79425 20.4989 3.14599 20.6997C3.49773 20.9006 3.89658 21.0042 4.30159 21H20.6985C21.1032 21.0039 21.5016 20.9001 21.853 20.6993C22.2044 20.4985 22.4961 20.2078 22.6982 19.8572C22.8956 19.52 22.9998 19.1363 23.0001 18.7456C23.0004 18.3548 22.8969 17.971 22.7 17.6334ZM11.75 9.75C11.75 9.55109 11.829 9.36032 11.9697 9.21967C12.1104 9.07902 12.3011 9 12.5 9C12.6989 9 12.8897 9.07902 13.0304 9.21967C13.171 9.36032 13.25 9.55109 13.25 9.75V13.5C13.25 13.6989 13.171 13.8897 13.0304 14.0303C12.8897 14.171 12.6989 14.25 12.5 14.25C12.3011 14.25 12.1104 14.171 11.9697 14.0303C11.829 13.8897 11.75 13.6989 11.75 13.5V9.75ZM12.5 18C12.2775 18 12.06 17.934 11.875 17.8104C11.69 17.6868 11.5458 17.5111 11.4607 17.3055C11.3755 17.1 11.3532 16.8738 11.3966 16.6555C11.4401 16.4373 11.5472 16.2368 11.7045 16.0795C11.8619 15.9222 12.0623 15.815 12.2806 15.7716C12.4988 15.7282 12.725 15.7505 12.9305 15.8356C13.1361 15.9208 13.3118 16.065 13.4354 16.25C13.559 16.435 13.625 16.6525 13.625 16.875C13.625 17.1734 13.5065 17.4595 13.2955 17.6705C13.0845 17.8815 12.7984 18 12.5 18Z" fill="#EF4444"/>
</svg>
