<svg xmlns="http://www.w3.org/2000/svg" width="20" height="22" viewBox="0 0 20 22" fill="none">
  <path d="M9 14C4.58172 14 1 12.6569 1 11" stroke="#F74036" stroke-width="1.5" stroke-linecap="round"/>
  <path d="M17 4V10.5M1 4V18C1 19.6569 4.58172 21 9 21C9.16793 21 9.33464 20.9981 9.5 20.9942" stroke="#F74036" stroke-width="1.5" stroke-linecap="round"/>
  <ellipse cx="9" cy="4" rx="8" ry="3" stroke="#F74036" stroke-width="1.5"/>
  <path d="M5 7V9" stroke="#F74036" stroke-width="1.5" stroke-linecap="round"/>
  <path d="M5 14V16" stroke="#F74036" stroke-width="1.5" stroke-linecap="round"/>
  <path d="M15 15.6667V17M15 17V18.3333M15 17H16.3333M15 17H13.6667M19 17C19 19.2091 17.2091 21 15 21C12.7909 21 11 19.2091 11 17C11 14.7909 12.7909 13 15 13C17.2091 13 19 14.7909 19 17Z" stroke="#F74036" stroke-width="1.5" stroke-linecap="round"/>
</svg>
