<svg width="192" height="42" viewBox="0 0 314 64" fill="currentColor" xmlns="http://www.w3.org/2000/svg">
  <path d="M38.3611 25.5276V44.7081H19.1805C19.1805 34.1157 27.7686 25.5276 38.3611 25.5276Z" fill="#F74036"/>
  <path d="M0 63.8886V44.7081H19.1805C19.1805 55.3006 10.5924 63.8886 0 63.8886Z" fill="#F74036"/>
  <path d="M38.3471 0V19.1805H19.1666C19.1666 8.58808 27.7546 0 38.3471 0Z" fill="#F74036"/>
  <path d="M0 38.3471V19.1805H19.1805C19.1805 29.7729 10.5924 38.3471 0 38.3471Z" fill="#F74036"/>
  <path d="M61.6755 25.5137L68.4819 42.3697C68.6768 42.8291 68.8856 43.1492 69.1222 43.3162C69.3588 43.4833 69.6511 43.5668 70.0269 43.5668H70.6951V44.7221H62.1905V43.5668H62.9839C63.6102 43.5668 64.0417 43.4972 64.2784 43.358C64.515 43.2188 64.6403 43.0378 64.6403 42.8012C64.6403 42.6203 64.5846 42.4115 64.4871 42.1609L63.0952 38.3889H56.3027L55.6624 40.3097C55.398 40.95 55.2588 41.4371 55.2588 41.7434C55.2588 42.2862 55.4536 42.7177 55.8434 43.0518C56.2331 43.3858 56.776 43.5529 57.458 43.5529H58.0426V44.7081H51.1526V43.5529H51.5424C51.9878 43.5529 52.3775 43.4137 52.7116 43.1353C53.1848 42.7316 53.5606 42.2305 53.8251 41.6042L60.3253 25.5137H61.7033H61.6755ZM59.699 30.1627L56.7899 37.164H62.5802L59.699 30.1627Z" fill="currentColor"/>
  <path d="M82.93 27.3928L84.0714 25.4859H84.9343L85.0457 32.1114H83.9461C83.3754 30.288 82.5681 28.9239 81.5102 28.0191C80.4524 27.1144 79.2971 26.6551 78.0166 26.6551C76.9309 26.6551 76.04 26.9613 75.358 27.5598C74.676 28.1583 74.328 28.8821 74.328 29.7173C74.328 30.2184 74.4672 30.6638 74.7316 31.0813C74.9961 31.4989 75.4415 31.8469 76.04 32.1392C76.6386 32.4315 77.6964 32.7377 79.1997 33.0439C80.9535 33.4198 82.1644 33.7538 82.8465 34.0461C83.9043 34.5194 84.7116 35.1596 85.2406 35.953C85.7695 36.7464 86.034 37.7068 86.034 38.8343C86.034 40.5324 85.4633 41.8826 84.308 42.8987C82.9161 44.1096 81.1901 44.7221 79.144 44.7221C77.251 44.7221 75.525 44.0539 73.9661 42.7177L72.5324 44.7221H71.6277V37.7347H72.7134C73.7851 41.6181 75.9565 43.5529 79.2275 43.5529C80.5637 43.5529 81.6077 43.2466 82.3454 42.6203C83.0831 41.9939 83.4589 41.2144 83.4589 40.2819C83.4589 39.6277 83.2919 39.0848 82.9718 38.6394C82.6516 38.194 82.1366 37.8321 81.4546 37.5676C81.0788 37.4145 80.1462 37.1779 78.6568 36.8578C76.6525 36.4124 75.2327 35.953 74.3697 35.4798C73.5207 35.0065 72.8943 34.4219 72.4907 33.726C72.087 33.03 71.8922 32.1949 71.8922 31.2066C71.8922 29.5363 72.4489 28.1723 73.5485 27.1144C74.662 26.0566 76.1375 25.5276 78.0026 25.5276C79.8678 25.5276 81.4267 26.154 82.9161 27.4067" fill="currentColor"/>
  <path d="M86.7159 25.5415H102.514L102.876 31.9582H101.79C101.54 30.4411 101.22 29.3554 100.844 28.6873C100.468 28.0191 99.9669 27.518 99.3545 27.1979C98.742 26.8638 97.9347 26.6968 96.9326 26.6968H94.455C94.0652 26.6968 93.7868 26.7803 93.6198 26.9334C93.4528 27.0866 93.3693 27.2953 93.3693 27.5737V33.9487H94.2183C95.1927 33.9487 95.9443 33.6703 96.4871 33.0996C97.0161 32.5428 97.3362 31.6242 97.4336 30.3854H98.5333V39.739H97.4336C97.3641 38.3193 97.0578 37.331 96.515 36.7464C95.9721 36.1618 95.1648 35.8834 94.0791 35.8834H93.3832V42.6759C93.3832 42.9682 93.4667 43.177 93.6337 43.3023C93.8982 43.4832 94.274 43.5807 94.7612 43.5807H96.9465C98.4497 43.5807 99.6607 43.0935 100.607 42.1331C101.554 41.1588 102.138 39.7112 102.375 37.7486H103.475L103.21 44.736H86.7438V43.5807H88.3723C88.7342 43.5807 89.0126 43.4832 89.2075 43.3023C89.4023 43.1074 89.4998 42.8569 89.4998 42.5367V27.6016C89.4998 27.3093 89.4023 27.0866 89.2075 26.9474C89.0126 26.8082 88.6646 26.7386 88.1774 26.7386H86.7438V25.5833L86.7159 25.5415Z" fill="currentColor"/>
  <path d="M115.111 25.5137L121.917 42.3697C122.112 42.8291 122.321 43.1492 122.558 43.3162C122.794 43.4833 123.087 43.5668 123.462 43.5668H124.13V44.7221H115.626V43.5668H116.419C117.046 43.5668 117.477 43.4972 117.714 43.358C117.95 43.2188 118.062 43.0378 118.062 42.8012C118.062 42.6203 118.02 42.4115 117.909 42.1609L116.517 38.3889H109.724L109.084 39.9339C108.819 40.5742 108.68 41.4371 108.68 41.7434C108.68 42.2862 108.875 42.7177 109.265 43.0518C109.655 43.3858 110.197 43.5529 110.88 43.5529H111.464V44.7081H104.574V43.5529H104.964C105.409 43.5529 105.799 43.4137 106.133 43.1353C106.606 42.7316 106.982 42.2305 107.247 41.6042L113.747 25.5137H115.125H115.111ZM113.134 30.1627L110.225 37.164H116.016L113.134 30.1627Z" fill="currentColor"/>
  <path d="M125.578 25.5415H131.201L141.028 38.9317V29.5781C141.028 28.729 140.792 28.0609 140.318 27.5459C139.845 27.0309 139.177 26.7525 138.3 26.6968V25.5415H144.926V26.6968C144.007 26.7943 143.339 27.0726 142.935 27.532C142.532 27.9913 142.337 28.6733 142.337 29.5781V44.7081H140.917L129.74 29.411V40.254C129.74 41.4093 130.004 42.2444 130.519 42.7734C131.034 43.3023 131.675 43.5668 132.454 43.5668H132.76V44.722H125.439V43.5668H125.94C126.664 43.5668 127.262 43.2745 127.749 42.7038C128.237 42.1331 128.487 41.3815 128.487 40.4767V27.8103C127.944 27.0726 127.234 26.7107 126.385 26.7107H125.578V25.5555V25.5415Z" fill="currentColor"/>
  <path d="M163.786 27.3928L165.108 25.5694H165.971L165.888 32.1113H164.788C164.217 30.2879 163.41 28.9239 162.352 28.0191C161.294 27.1144 160.139 26.6551 158.859 26.6551C157.773 26.6551 156.882 26.9613 156.2 27.5598C155.518 28.1583 155.184 28.8821 155.184 29.7173C155.184 30.2184 155.323 30.6638 155.588 31.0813C155.852 31.4989 156.298 31.8469 156.896 32.1392C157.495 32.4315 158.552 32.7377 160.056 33.0439C161.809 33.4197 163.02 33.7538 163.702 34.0461C164.76 34.5194 165.568 35.1596 166.097 35.953C166.626 36.7464 166.89 37.7068 166.89 38.8343C166.89 40.5324 166.319 41.8826 165.164 42.8986C163.772 44.1096 162.06 44.7221 160 44.7221C158.107 44.7221 156.381 44.0539 154.822 42.7177L153.388 44.7221H152.484V37.7347H153.569C154.641 41.6181 156.813 43.5528 160.084 43.5528C161.42 43.5528 162.464 43.2466 163.201 42.6203C163.939 41.9939 164.315 41.2144 164.315 40.2819C164.315 39.6277 164.148 39.0848 163.828 38.6394C163.508 38.194 162.993 37.8321 162.311 37.5676C161.935 37.4145 161.002 37.1779 159.513 36.8578C157.508 36.4123 156.089 35.953 155.226 35.4798C154.377 35.0065 153.75 34.4219 153.347 33.726C152.943 33.03 152.748 32.1949 152.748 31.2066C152.748 29.5363 153.305 28.1722 154.405 27.1144C155.518 26.0565 156.993 25.5276 158.859 25.5276C160.724 25.5276 162.283 26.154 163.772 27.4067" fill="currentColor"/>
  <path d="M167.572 25.5415H183.37L183.732 31.9582H182.646C182.396 30.4411 182.076 29.3554 181.7 28.6873C181.324 28.0191 180.823 27.518 180.211 27.1979C179.598 26.8638 178.791 26.6968 177.789 26.6968H175.311C174.921 26.6968 174.643 26.7803 174.476 26.9334C174.309 27.0866 174.225 27.2953 174.225 27.5737V33.9487H175.074C176.049 33.9487 176.8 33.6703 177.343 33.0996C177.872 32.5428 178.192 31.6242 178.29 30.3854H179.389V39.739H178.29C178.22 38.3193 177.914 37.331 177.371 36.7464C176.828 36.1618 176.021 35.8834 174.935 35.8834H174.239V42.6759C174.239 42.9682 174.323 43.177 174.49 43.3023C174.754 43.4832 175.13 43.5807 175.617 43.5807H177.802C179.292 43.5807 180.517 43.0935 181.463 42.1331C182.41 41.1588 182.994 39.7112 183.231 37.7486H184.331L184.066 44.736H167.6V43.5807H169.228C169.59 43.5807 169.869 43.4832 170.063 43.3023C170.258 43.1074 170.356 42.8569 170.356 42.5367V27.6016C170.356 27.3093 170.258 27.0866 170.063 26.9474C169.869 26.8082 169.521 26.7386 169.033 26.7386H167.6V25.5833L167.572 25.5415Z" fill="currentColor"/>
  <path d="M199.85 27.3649L200.699 25.5415H201.604L201.91 32.9047H200.783C200.435 30.789 199.767 29.2162 198.793 28.1862C197.818 27.1562 196.705 26.6412 195.452 26.6412C194.074 26.6412 192.946 27.3093 192.042 28.6316C191.137 29.9539 190.692 32.0418 190.692 34.8952C190.692 37.9156 191.179 40.1566 192.181 41.6181C192.974 42.7734 194.144 43.3441 195.689 43.3441C197.234 43.3441 198.528 42.7734 199.586 41.6181C200.351 40.783 200.88 39.5442 201.187 37.9156H202.286C202.022 40.0174 201.228 41.6599 199.92 42.8847C198.598 44.1096 196.983 44.7081 195.062 44.7081C192.571 44.7081 190.497 43.8173 188.813 42.0496C187.128 40.2679 186.293 37.9991 186.293 35.2292C186.293 32.1531 187.267 29.6894 189.202 27.8521C190.859 26.2932 192.793 25.4998 195.007 25.4998C195.883 25.4998 196.691 25.639 197.442 25.9174C198.194 26.1957 198.987 26.669 199.85 27.351" fill="currentColor"/>
  <path d="M203.205 25.5415H212.322V26.6968H210.471C210.206 26.6968 209.997 26.7803 209.858 26.9613C209.719 27.1422 209.635 27.4067 209.635 27.7686V38.361C209.635 39.7947 210.011 40.8943 210.763 41.6598C211.515 42.4254 212.558 42.8151 213.881 42.8151C214.855 42.8151 215.732 42.6063 216.525 42.1749C217.11 41.8547 217.583 41.3397 217.959 40.6298C218.335 39.906 218.516 39.0013 218.516 37.9156V29.6894C218.516 28.7012 218.293 27.9495 217.862 27.4484C217.43 26.9474 216.846 26.6968 216.094 26.6968H215.829V25.5415H222.747V26.6968H222.274C221.55 26.6968 221.007 26.9752 220.632 27.518C220.256 28.0748 220.061 28.7568 220.061 29.5642V38.4585C220.061 40.3375 219.434 41.8547 218.196 42.9961C216.943 44.1514 215.231 44.722 213.046 44.722C211.487 44.722 210.123 44.4576 208.967 43.9426C207.812 43.4276 206.991 42.7595 206.504 41.9382C206.016 41.117 205.78 40.0452 205.78 38.709V27.9635C205.78 27.4902 205.682 27.1561 205.515 26.9752C205.334 26.7943 205.014 26.7107 204.541 26.7107H203.205V25.5555V25.5415Z" fill="currentColor"/>
  <path d="M224.125 25.5276H233.59C235.121 25.5276 236.374 25.7364 237.348 26.1261C238.323 26.5298 239.033 27.0726 239.506 27.7686C239.979 28.4646 240.216 29.2301 240.216 30.0652C240.216 31.4154 239.617 32.5011 238.42 33.3362C237.515 33.9765 236.11 34.3941 234.23 34.575C235.177 34.7281 235.901 35.438 236.416 35.786C236.931 36.134 237.376 36.649 237.766 37.3171C238.281 38.2079 238.699 39.4606 239.033 40.7134C239.241 41.5207 239.422 42.0218 239.575 42.2305C239.729 42.4393 239.909 42.5368 240.104 42.5368C240.647 42.5368 240.967 41.813 241.079 40.3654H242.164C242.081 41.9104 241.747 43.01 241.148 43.6781C240.55 44.3462 239.715 44.6803 238.629 44.6803C237.849 44.6803 237.223 44.5133 236.764 44.1931C236.304 43.873 235.943 43.3997 235.692 42.7734C235.553 42.4115 235.344 41.5763 235.08 40.2679C234.773 38.7229 234.509 37.512 234.258 36.983C234.022 36.4541 233.702 36.0644 233.326 35.7999C232.936 35.5494 232.463 35.4102 231.906 35.4102H230.57V42.5507C230.57 42.843 230.653 43.0796 230.82 43.2327C231.071 43.4415 231.349 43.5389 231.683 43.5389H233.326V44.6942H224.139V43.5389H225.559C225.935 43.5389 226.199 43.4415 226.394 43.2466C226.589 43.0518 226.672 42.7873 226.672 42.4393V27.7686C226.672 27.3928 226.589 27.1144 226.422 26.9335C226.255 26.7525 226.004 26.669 225.684 26.669H224.139V25.5137L224.125 25.5276ZM230.556 33.8652H232.087C233.451 33.8652 234.509 33.5172 235.302 32.8073C235.887 32.2645 236.179 31.3597 236.179 30.0931C236.179 28.9239 235.887 28.0609 235.316 27.5181C234.732 26.9752 233.729 26.7107 232.296 26.7107C231.53 26.7107 231.043 26.7943 230.848 26.9613C230.653 27.1283 230.556 27.5041 230.556 28.1027V33.8791V33.8652Z" fill="currentColor"/>
  <path d="M242.61 25.5415H251.908V26.6968H250.224C249.862 26.6968 249.597 26.7664 249.444 26.9195C249.277 27.0587 249.194 27.2814 249.194 27.5598V42.5924C249.194 42.9265 249.277 43.1631 249.444 43.3023C249.667 43.4832 249.987 43.5807 250.405 43.5807H251.908V44.736H242.61V43.5807H244.03C244.517 43.5807 244.865 43.4972 245.06 43.3301C245.254 43.1631 245.366 42.9265 245.366 42.5924V27.7268C245.366 27.3789 245.268 27.1283 245.087 26.9613C244.907 26.7943 244.614 26.7107 244.224 26.7107H242.61V25.5555V25.5415Z" fill="currentColor"/>
  <path d="M253.369 25.5415H269.223L269.627 32.515H268.513C268.249 31.0257 267.915 29.8565 267.497 29.0213C267.08 28.1862 266.606 27.5876 266.063 27.2397C265.521 26.8917 264.936 26.7107 264.31 26.7107C263.948 26.7107 263.669 26.7803 263.502 26.9334C263.335 27.0866 263.238 27.3093 263.238 27.6016V42.6203C263.238 42.8986 263.321 43.1214 263.488 43.2884C263.655 43.4554 263.864 43.5528 264.101 43.5528H266.161V44.7081H256.459V43.5528H258.422C258.714 43.5528 258.951 43.4693 259.118 43.3023C259.285 43.1353 259.368 42.9126 259.368 42.6203V27.6851C259.368 27.351 259.285 27.1144 259.104 26.9474C258.923 26.7943 258.658 26.7107 258.283 26.7107C256.195 26.7107 254.789 28.6455 254.051 32.515H252.966L253.355 25.5415H253.369Z" fill="currentColor"/>
  <path d="M270.462 25.5137H279.76V26.669H278.076C277.714 26.669 277.449 26.7386 277.296 26.8917C277.129 27.0309 277.046 27.2536 277.046 27.532V42.5785C277.046 42.9126 277.129 43.1492 277.296 43.2884C277.519 43.4693 277.839 43.5668 278.257 43.5668H279.76V44.7221H270.462V43.5668H271.882C272.369 43.5668 272.717 43.4833 272.912 43.3162C273.107 43.1492 273.218 42.9126 273.218 42.5785V27.6851C273.218 27.3371 273.12 27.0866 272.94 26.9195C272.759 26.7525 272.466 26.669 272.077 26.669H270.462V25.5137Z" fill="currentColor"/>
  <path d="M280.859 25.5415H296.658L297.006 31.9582H295.934C295.683 30.4411 295.363 29.3554 294.987 28.6873C294.612 28.0191 294.11 27.518 293.498 27.1979C292.886 26.8638 292.078 26.6968 291.076 26.6968H288.599C288.209 26.6968 287.93 26.7803 287.763 26.9334C287.596 27.0866 287.499 27.2953 287.499 27.5737V33.9487H288.348C289.322 33.9487 290.074 33.6703 290.617 33.0996C291.146 32.5428 291.466 31.6242 291.563 30.3854H292.663V39.739H291.563C291.494 38.3193 291.187 37.331 290.645 36.7464C290.102 36.1618 289.294 35.8834 288.209 35.8834H287.513V42.6759C287.513 42.9682 287.596 43.1909 287.777 43.3023C288.042 43.4832 288.418 43.5807 288.905 43.5807H291.09C292.579 43.5807 293.804 43.0935 294.751 42.1331C295.697 41.1588 296.282 39.7112 296.518 37.7486H297.618L297.354 44.736H280.887V43.5807H282.516C282.878 43.5807 283.156 43.4832 283.351 43.2884C283.546 43.0935 283.643 42.843 283.643 42.5228V27.5876C283.643 27.2953 283.546 27.0726 283.351 26.9334C283.156 26.7943 282.808 26.7247 282.321 26.7247H280.887V25.5694L280.859 25.5415Z" fill="currentColor"/>
  <path d="M310.034 27.3928L311.175 25.5137H312.038L312.15 32.0974H311.05C310.479 30.274 309.658 28.91 308.614 28.0052C307.556 27.1005 306.401 26.6412 305.121 26.6412C304.035 26.6412 303.144 26.9474 302.462 27.5459C301.78 28.1444 301.446 28.8682 301.446 29.7034C301.446 30.2044 301.585 30.6499 301.85 31.0674C302.114 31.485 302.559 31.833 303.158 32.1253C303.756 32.4176 304.814 32.7238 306.318 33.03C308.071 33.4058 309.282 33.7399 309.964 34.0322C311.022 34.5054 311.83 35.1457 312.358 35.9391C312.887 36.7325 313.152 37.6929 313.152 38.8204C313.152 40.5185 312.581 41.8686 311.426 42.8847C310.034 44.0957 308.322 44.7081 306.262 44.7081C304.369 44.7081 302.643 44.04 301.084 42.7038L299.65 44.7081H298.746V37.7068H299.817C300.889 41.5903 303.061 43.525 306.332 43.525C307.668 43.525 308.712 43.2188 309.449 42.5924C310.187 41.9661 310.563 41.1866 310.563 40.254C310.563 39.5998 310.396 39.057 310.076 38.6116C309.756 38.1662 309.241 37.8043 308.559 37.5398C308.183 37.3867 307.25 37.1501 305.761 36.8299C303.756 36.3845 302.337 35.9252 301.474 35.4519C300.625 34.9787 299.998 34.3941 299.595 33.6981C299.191 33.0022 298.996 32.167 298.996 31.1788C298.996 29.5085 299.553 28.1444 300.653 27.0866C301.766 26.0287 303.241 25.4998 305.107 25.4998C306.972 25.4998 308.531 26.1261 310.02 27.3789" fill="currentColor"/>
  <path d="M52.99 63.5128C52.4054 63.1927 51.9321 62.7473 51.5981 62.1766C51.264 61.6059 51.097 60.9656 51.097 60.2558C51.097 59.5459 51.264 58.9056 51.5981 58.3349C51.9321 57.7643 52.3915 57.3188 52.99 56.9987C53.5885 56.6786 54.2427 56.5115 54.9804 56.5115C55.5511 56.5115 56.08 56.609 56.5533 56.8038C57.0265 56.9987 57.4302 57.2771 57.7642 57.6529L57.0822 58.3071C56.5254 57.7225 55.8434 57.4441 55.0222 57.4441C54.4793 57.4441 53.9922 57.5694 53.5467 57.806C53.1153 58.0566 52.7673 58.3906 52.5167 58.8221C52.2662 59.2536 52.1409 59.7269 52.1409 60.2558C52.1409 60.7847 52.2662 61.2719 52.5167 61.6894C52.7673 62.107 53.1153 62.455 53.5467 62.6916C53.9922 62.9422 54.4793 63.0535 55.0222 63.0535C55.8434 63.0535 56.5254 62.7612 57.0822 62.1766L57.7642 62.8308C57.4302 63.2066 57.0265 63.4989 56.5394 63.6938C56.0661 63.8887 55.5372 63.9861 54.9665 63.9861C54.2288 63.9861 53.5746 63.8191 52.9761 63.4989" fill="#F74036"/>
  <path d="M61.4667 63.5128C60.8682 63.1927 60.4089 62.7473 60.0748 62.1627C59.7408 61.592 59.5737 60.9517 59.5737 60.2418C59.5737 59.532 59.7408 58.9056 60.0748 58.321C60.4089 57.7503 60.8821 57.3049 61.4667 56.9709C62.0513 56.6368 62.7334 56.4837 63.4711 56.4837C64.2088 56.4837 64.863 56.6507 65.4615 56.9709C66.06 57.291 66.5194 57.7364 66.8534 58.3071C67.1875 58.8778 67.3545 59.5181 67.3545 60.2279C67.3545 60.9378 67.1875 61.5781 66.8534 62.1488C66.5194 62.7194 66.06 63.1649 65.4615 63.485C64.863 63.8051 64.2088 63.9722 63.4711 63.9722C62.7334 63.9722 62.0652 63.8051 61.4667 63.485M64.9187 62.6777C65.3502 62.4411 65.6842 62.0931 65.9348 61.6616C66.1853 61.2301 66.3106 60.7569 66.3106 60.2279C66.3106 59.699 66.1853 59.2258 65.9348 58.7943C65.6842 58.3628 65.3502 58.0287 64.9187 57.7921C64.4872 57.5415 64 57.4302 63.4711 57.4302C62.9422 57.4302 62.455 57.5555 62.0096 57.7921C61.5781 58.0287 61.2301 58.3767 60.9796 58.7943C60.729 59.2258 60.6037 59.699 60.6037 60.2279C60.6037 60.7569 60.729 61.244 60.9796 61.6616C61.2301 62.0931 61.5642 62.4271 62.0096 62.6777C62.4411 62.9282 62.9282 63.0396 63.4711 63.0396C64.0139 63.0396 64.4872 62.9143 64.9187 62.6777ZM64.4315 55.9687L63.4711 55.1614L62.5107 55.9687H61.6059L62.9978 54.6046H63.9582L65.3502 55.9687H64.4454H64.4315Z" fill="#F74036"/>
  <path d="M76.2906 56.595V63.9165H75.4276L71.0431 58.4463V63.9165H69.9852V56.595H70.8482L75.2467 62.0513V56.595H76.2906Z" fill="#F74036"/>
  <path d="M84.6142 60.214H85.6163V63.0674C85.2544 63.3597 84.8369 63.5964 84.3497 63.7634C83.8625 63.9304 83.3614 64 82.8464 64C82.1087 64 81.4406 63.833 80.8421 63.5128C80.2436 63.1927 79.7842 62.7473 79.4502 62.1766C79.1161 61.6059 78.9491 60.9656 78.9491 60.2558C78.9491 59.5459 79.1161 58.9056 79.4502 58.3349C79.7842 57.7643 80.2575 57.3188 80.856 56.9987C81.4545 56.6786 82.1226 56.5115 82.8743 56.5115C83.4589 56.5115 83.9878 56.609 84.475 56.8038C84.9482 56.9987 85.3658 57.2771 85.6999 57.6529L85.0457 58.3071C84.4611 57.7364 83.7512 57.458 82.916 57.458C82.3593 57.458 81.8582 57.5833 81.4128 57.8199C80.9674 58.0566 80.6194 58.3906 80.3688 58.8221C80.1183 59.2536 79.993 59.7408 79.993 60.2697C79.993 60.7986 80.1183 61.2858 80.3688 61.7034C80.6194 62.1209 80.9674 62.4689 81.4128 62.7055C81.8582 62.9561 82.3593 63.0674 82.9021 63.0674C83.5563 63.0674 84.127 62.9143 84.6142 62.5942V60.214Z" fill="#F74036"/>
  <path d="M93.9818 57.4998H91.4624V56.595H97.5311V57.4998H95.0118V63.9165H93.9818V57.4998Z" fill="#F74036"/>
  <path d="M102.431 61.3832V63.9165H101.401V61.3554L98.4915 56.595H99.605L101.957 60.4506L104.31 56.595H105.34L102.431 61.3832Z" fill="#F74036"/>
  <path d="M112.605 63.5128C112.021 63.1927 111.548 62.7473 111.214 62.1766C110.879 61.6059 110.712 60.9656 110.712 60.2558C110.712 59.5459 110.879 58.9056 111.214 58.3349C111.548 57.7643 112.007 57.3188 112.605 56.9987C113.204 56.6786 113.858 56.5115 114.596 56.5115C115.167 56.5115 115.695 56.609 116.169 56.8038C116.642 56.9987 117.046 57.2771 117.38 57.6529L116.698 58.3071C116.141 57.7225 115.459 57.4441 114.638 57.4441C114.095 57.4441 113.608 57.5694 113.162 57.806C112.731 58.0566 112.383 58.3906 112.132 58.8221C111.882 59.2536 111.756 59.7269 111.756 60.2558C111.756 60.7847 111.882 61.2719 112.132 61.6894C112.383 62.1209 112.731 62.455 113.162 62.6916C113.608 62.9422 114.095 63.0535 114.638 63.0535C115.459 63.0535 116.141 62.7612 116.698 62.1766L117.38 62.8308C117.046 63.2066 116.642 63.4989 116.155 63.6938C115.682 63.8887 115.153 63.9861 114.582 63.9861C113.844 63.9861 113.19 63.8191 112.592 63.4989" fill="#F74036"/>
  <path d="M121.082 63.5128C120.484 63.1927 120.024 62.7334 119.69 62.1627C119.356 61.592 119.189 60.9517 119.189 60.2419C119.189 59.532 119.356 58.8917 119.69 58.321C120.024 57.7503 120.498 57.3049 121.082 56.9709C121.681 56.6507 122.335 56.4837 123.087 56.4837C123.838 56.4837 124.478 56.6507 125.077 56.9709C125.676 57.291 126.135 57.7364 126.469 58.3071C126.803 58.8778 126.97 59.5181 126.97 60.2279C126.97 60.9378 126.803 61.5781 126.469 62.1488C126.135 62.7195 125.676 63.1649 125.077 63.485C124.478 63.8051 123.824 63.9722 123.087 63.9722C122.349 63.9722 121.681 63.8051 121.082 63.485M124.534 62.6777C124.966 62.4411 125.3 62.0931 125.55 61.6755C125.801 61.244 125.926 60.7708 125.926 60.2419C125.926 59.7129 125.801 59.2258 125.55 58.8082C125.3 58.3906 124.966 58.0426 124.534 57.7921C124.103 57.5416 123.615 57.4302 123.087 57.4302C122.558 57.4302 122.057 57.5555 121.625 57.7921C121.194 58.0426 120.846 58.3767 120.595 58.8082C120.344 59.2397 120.219 59.7129 120.219 60.2419C120.219 60.7708 120.344 61.244 120.595 61.6755C120.846 62.107 121.18 62.4411 121.625 62.6777C122.057 62.9282 122.544 63.0396 123.087 63.0396C123.629 63.0396 124.103 62.9143 124.534 62.6777ZM124.033 56.08L123.087 55.4954L122.14 56.08H121.221L122.627 55.0361H123.574L124.98 56.08H124.061H124.033ZM125.286 55.4258C125.425 55.3702 125.522 55.2867 125.606 55.2031L125.717 54.9248L125.606 54.6881L125.314 54.6046C125.161 54.6046 125.007 54.6464 124.868 54.7299L124.673 54.3402C124.882 54.2149 125.119 54.1453 125.397 54.1453C125.648 54.1453 125.843 54.2149 125.996 54.3541C126.135 54.4933 126.218 54.6603 126.218 54.883C126.218 55.0779 126.163 55.2449 126.037 55.3841C125.912 55.5372 125.759 55.6486 125.564 55.7321L125.3 55.4258H125.286Z" fill="#F74036"/>
  <path d="M138.565 57.2631C139.107 57.7225 139.386 58.3349 139.386 59.1422C139.386 59.9495 139.107 60.562 138.565 61.0213C138.022 61.4806 137.27 61.7033 136.324 61.7033H134.514V63.9165H133.47V56.595H136.324C137.27 56.595 138.022 56.8177 138.565 57.2771M137.813 60.3671C138.161 60.0887 138.342 59.6851 138.342 59.1422C138.342 58.5994 138.175 58.2096 137.813 57.9173C137.465 57.639 136.964 57.4998 136.296 57.4998H134.514V60.7847H136.296C136.964 60.7847 137.465 60.6455 137.813 60.3532" fill="#F74036"/>
  <path d="M148.266 56.595V63.9165H147.222V60.6455H143.019V63.9165H141.961V56.595H143.019V59.7407H147.222V56.595H148.266Z" fill="#F74036"/>
  <path d="M156.186 62.0792H152.289L151.482 63.9165H150.41L153.722 56.595H154.752L158.079 63.9165H156.98L156.172 62.0792H156.186ZM155.198 55.9826L154.251 55.398L153.305 55.9826H152.386L153.792 54.9387H154.739L156.144 55.9826H155.226H155.198ZM155.81 61.244L154.224 57.6529L152.637 61.244H155.796H155.81ZM155.226 54.3541H156.367L157.592 55.5372H156.771L155.226 54.3541Z" fill="#F74036"/>
  <path d="M166.528 56.595V63.9165H165.665L161.267 58.4463V63.9165H160.223V56.595H161.072L165.47 62.0513V56.595H166.528Z" fill="#F74036"/>
  <path d="M174.921 63.5128C174.337 63.1927 173.863 62.7473 173.529 62.1766C173.195 61.6059 173.028 60.9656 173.028 60.2558C173.028 59.5459 173.195 58.9056 173.529 58.3349C173.863 57.7643 174.323 57.3188 174.921 56.9987C175.52 56.6786 176.174 56.5115 176.912 56.5115C177.482 56.5115 178.011 56.609 178.485 56.8038C178.958 56.9987 179.361 57.2771 179.696 57.6529L179.013 58.3071C178.457 57.7225 177.775 57.4441 176.953 57.4441C176.411 57.4441 175.923 57.5694 175.478 57.806C175.033 58.0566 174.699 58.3906 174.448 58.8221C174.197 59.2536 174.072 59.7269 174.072 60.2558C174.072 60.7847 174.197 61.2719 174.448 61.6894C174.699 62.1209 175.033 62.455 175.478 62.6916C175.923 62.9422 176.411 63.0535 176.953 63.0535C177.775 63.0535 178.457 62.7612 179.013 62.1766L179.696 62.8308C179.361 63.2066 178.958 63.4989 178.471 63.6938C177.997 63.8887 177.468 63.9861 176.898 63.9861C176.16 63.9861 175.506 63.8191 174.921 63.4989" fill="#F74036"/>
  <path d="M188.548 56.595V63.9165H187.49V60.6455H183.287V63.9165H182.243V56.595H183.287V59.7407H187.49V56.595H188.548Z" fill="#F74036"/>
  <path d="M192.543 63.1649C192 62.6081 191.722 61.8008 191.722 60.7569V56.595H192.766V60.7151C192.766 62.2879 193.448 63.0674 194.826 63.0674C195.494 63.0674 196.009 62.8726 196.371 62.4828C196.732 62.0931 196.9 61.5085 196.9 60.7151V56.595H197.916V60.7569C197.916 61.8147 197.637 62.6081 197.094 63.1649C196.552 63.7216 195.786 64 194.812 64C193.837 64 193.072 63.7216 192.529 63.1649M195.452 54.6324H196.732L194.979 55.9965H194.032L195.452 54.6324ZM197.387 56.595H197.582C197.804 56.595 197.971 56.5254 198.083 56.4002C198.194 56.2749 198.25 56.1079 198.25 55.913C198.25 55.6625 198.18 55.4398 198.041 55.2588L198.681 55.0222C198.876 55.2866 198.973 55.5929 198.973 55.9548C198.973 56.3863 198.848 56.7342 198.598 56.9848C198.347 57.2353 198.013 57.3745 197.582 57.3745H197.387V56.609V56.595Z" fill="#F74036"/>
  <path d="M207.492 56.595V63.9165H206.643L202.244 58.4463V63.9165H201.201V56.595H202.05L206.448 62.0513V56.595H207.492Z" fill="#F74036"/>
  <path d="M215.816 60.214H216.818V63.0674C216.456 63.3597 216.038 63.5964 215.551 63.7634C215.064 63.9304 214.563 64 214.048 64C213.31 64 212.642 63.833 212.044 63.5128C211.445 63.1927 210.986 62.7473 210.652 62.1766C210.318 61.6059 210.151 60.9656 210.151 60.2558C210.151 59.5459 210.318 58.9056 210.652 58.3349C210.986 57.7643 211.459 57.3188 212.057 56.9987C212.656 56.6786 213.324 56.5115 214.076 56.5115C214.66 56.5115 215.189 56.609 215.676 56.8038C216.15 56.9987 216.567 57.2771 216.901 57.6529L216.247 58.3071C215.662 57.7364 214.953 57.458 214.117 57.458C213.561 57.458 213.06 57.5833 212.614 57.8199C212.169 58.0566 211.821 58.3906 211.57 58.8221C211.32 59.2536 211.194 59.7408 211.194 60.2697C211.194 60.7986 211.32 61.2858 211.57 61.7034C211.821 62.1209 212.169 62.4689 212.614 62.7055C213.06 62.9561 213.561 63.0674 214.104 63.0674C214.758 63.0674 215.328 62.9143 215.816 62.5942V60.214Z" fill="#F74036"/>
  <path d="M226.116 60.6594L224.779 62.0235V63.9165H223.722V56.595H224.779V60.6872L228.746 56.595H229.943L226.812 59.8799L230.138 63.9165H228.913L226.116 60.6594Z" fill="#F74036"/>
  <path d="M238.601 56.595V63.9165H237.557V60.6455H233.354V63.9165H232.296V56.595H233.354V59.7407H237.557V56.595H238.601Z" fill="#F74036"/>
  <path d="M243.153 63.5128C242.554 63.1927 242.095 62.7334 241.761 62.1627C241.427 61.592 241.26 60.9517 241.26 60.2419C241.26 59.532 241.427 58.8917 241.761 58.321C242.095 57.7503 242.568 57.3049 243.153 56.9709C243.751 56.6507 244.405 56.4837 245.157 56.4837C245.909 56.4837 246.549 56.6507 247.147 56.9709C247.746 57.291 248.205 57.7364 248.539 58.3071C248.873 58.8778 249.04 59.5181 249.04 60.2279C249.04 60.9378 248.873 61.5781 248.539 62.1488C248.205 62.7195 247.746 63.1649 247.147 63.485C246.549 63.8051 245.895 63.9722 245.157 63.9722C244.419 63.9722 243.751 63.8051 243.153 63.485M246.605 62.6777C247.036 62.4272 247.37 62.0931 247.621 61.6616C247.871 61.2301 247.996 60.7569 247.996 60.2279C247.996 59.699 247.871 59.2118 247.621 58.7943C247.37 58.3628 247.036 58.0287 246.605 57.7782C246.173 57.5276 245.686 57.4163 245.157 57.4163C244.628 57.4163 244.127 57.5416 243.695 57.7782C243.264 58.0287 242.916 58.3628 242.665 58.7943C242.415 59.2258 242.29 59.699 242.29 60.2279C242.29 60.7569 242.415 61.2301 242.665 61.6616C242.916 62.0931 243.25 62.4272 243.695 62.6777C244.127 62.9282 244.614 63.0396 245.157 63.0396C245.7 63.0396 246.173 62.9143 246.605 62.6777Z" fill="#F74036"/>
  <path d="M256.251 62.0792H252.353L251.546 63.9165H250.474L253.787 56.595H254.817L258.144 63.9165H257.044L256.237 62.0792H256.251ZM255.889 61.244L254.302 57.6529L252.715 61.244H255.875H255.889ZM254.956 54.6324H256.237L254.483 55.9965H253.536L254.956 54.6324Z" fill="#F74036"/>
  <path d="M266.592 56.595V63.9165H265.729L261.331 58.4463V63.9165H260.287V56.595H261.15L265.535 62.0513V56.595H266.592Z" fill="#F74036"/>
  <path d="M278.368 62.0792H274.471L273.663 63.9165H272.592L275.904 56.595H276.948L280.275 63.9165H279.175L278.368 62.0792ZM278.006 61.244L276.419 57.6529L274.833 61.244H277.992H278.006Z" fill="#F74036"/>
  <path d="M282.947 63.7356C282.432 63.5685 282.029 63.3458 281.736 63.0674L282.126 62.2462C282.404 62.4968 282.766 62.7055 283.198 62.8586C283.629 63.0118 284.075 63.0953 284.548 63.0953C285.16 63.0953 285.606 62.9978 285.912 62.7891C286.218 62.5803 286.357 62.3158 286.357 61.9678C286.357 61.7173 286.274 61.5085 286.107 61.3554C285.94 61.2023 285.745 61.077 285.494 60.9935C285.258 60.91 284.91 60.8125 284.478 60.7151C283.922 60.5759 283.476 60.4506 283.142 60.3115C282.808 60.1862 282.516 59.9774 282.279 59.699C282.043 59.4206 281.917 59.0587 281.917 58.5855C281.917 58.1957 282.015 57.8478 282.223 57.5276C282.432 57.2075 282.738 56.957 283.156 56.776C283.574 56.5811 284.089 56.4976 284.715 56.4976C285.147 56.4976 285.578 56.5533 285.996 56.6646C286.413 56.776 286.775 56.9291 287.067 57.1518L286.719 57.987C286.413 57.7921 286.079 57.639 285.731 57.5416C285.383 57.4441 285.035 57.3884 284.701 57.3884C284.103 57.3884 283.657 57.4998 283.365 57.7086C283.073 57.9313 282.919 58.2097 282.919 58.5437C282.919 58.7943 283.003 59.0031 283.17 59.1562C283.337 59.3093 283.546 59.4345 283.796 59.5181C284.047 59.6016 284.381 59.699 284.812 59.7964C285.369 59.9217 285.801 60.0609 286.135 60.1862C286.469 60.3254 286.761 60.5202 286.998 60.7986C287.234 61.077 287.36 61.4389 287.36 61.8982C287.36 62.288 287.248 62.6359 287.039 62.9561C286.831 63.2762 286.511 63.5268 286.093 63.7077C285.661 63.8887 285.147 63.9861 284.52 63.9861C283.963 63.9861 283.434 63.9026 282.919 63.7356" fill="#F74036"/>
  <path d="M295.266 62.9978V63.9165H289.949V56.595H295.113V57.4998H290.993V59.7547H294.667V60.6455H290.993V62.9978H295.266Z" fill="#F74036"/>
  <path d="M302.671 62.0792H298.773L297.966 63.9165H296.894L300.207 56.595H301.251L304.578 63.9165H303.478L302.671 62.0792ZM302.309 61.244L300.722 57.6529L299.135 61.244H302.295H302.309Z" fill="#F74036"/>
  <path d="M313.013 56.595V63.9165H312.164L307.765 58.4463V63.9165H306.721V56.595H307.57L311.969 62.0513V56.595H313.013Z" fill="#F74036"/>
</svg>
