<svg xmlns="http://www.w3.org/2000/svg" width="22" height="20" viewBox="0 0 22 20" fill="none">
  <path
    d="M11 7V11M11 11H8C6.11438 11 5.17157 11 4.58579 11.5858C4 12.1716 4 13.1144 4 15M11 11H14C15.8856 11 16.8284 11 17.4142 11.5858C18 12.1716 18 13.1144 18 15"
    stroke="currentColor" stroke-width="1.5" stroke-linecap="round" stroke-linejoin="round"/>
  <path
    d="M1.00866 19C1 18.7125 1 18.3821 1 18C1 16.5858 1 15.8787 1.43934 15.4393C1.87868 15 2.58579 15 4 15C5.41421 15 6.12132 15 6.56066 15.4393C7 15.8787 7 16.5858 7 18C7 18.3821 7 18.7125 6.99134 19"
    stroke="currentColor" stroke-width="1.5" stroke-linecap="round"/>
  <path
    d="M15.0087 19C15 18.7125 15 18.3821 15 18C15 16.5858 15 15.8787 15.4393 15.4393C15.8787 15 16.5858 15 18 15C19.4142 15 20.1213 15 20.5607 15.4393C21 15.8787 21 16.5858 21 18C21 18.3821 21 18.7125 20.9913 19"
    stroke="currentColor" stroke-width="1.5" stroke-linecap="round"/>
  <path
    d="M9.28571 1H12.7143C14.7888 1 15 2.10993 15 4C15 5.89007 14.7888 7 12.7143 7H9.28571C7.2112 7 7 5.89007 7 4C7 2.10993 7.2112 1 9.28571 1Z"
    stroke="currentColor" stroke-width="1.5"/>
</svg>
