<svg xmlns="http://www.w3.org/2000/svg" width="25" height="24" viewBox="0 0 25 24" fill="none">
  <path d="M12.5 2.25C10.5716 2.25 8.68657 2.82183 7.08319 3.89317C5.47982 4.96451 4.23013 6.48726 3.49218 8.26884C2.75422 10.0504 2.56114 12.0108 2.93735 13.9021C3.31355 15.7934 4.24215 17.5307 5.60571 18.8943C6.96928 20.2579 8.70656 21.1865 10.5979 21.5627C12.4892 21.9389 14.4496 21.7458 16.2312 21.0078C18.0127 20.2699 19.5355 19.0202 20.6068 17.4168C21.6782 15.8134 22.25 13.9284 22.25 12C22.2473 9.41498 21.2192 6.93661 19.3913 5.10872C17.5634 3.28084 15.085 2.25273 12.5 2.25ZM11.75 7.5C11.75 7.30109 11.829 7.11032 11.9697 6.96967C12.1103 6.82902 12.3011 6.75 12.5 6.75C12.6989 6.75 12.8897 6.82902 13.0303 6.96967C13.171 7.11032 13.25 7.30109 13.25 7.5V12.75C13.25 12.9489 13.171 13.1397 13.0303 13.2803C12.8897 13.421 12.6989 13.5 12.5 13.5C12.3011 13.5 12.1103 13.421 11.9697 13.2803C11.829 13.1397 11.75 12.9489 11.75 12.75V7.5ZM12.5 17.25C12.2775 17.25 12.06 17.184 11.875 17.0604C11.69 16.9368 11.5458 16.7611 11.4606 16.5555C11.3755 16.35 11.3532 16.1238 11.3966 15.9055C11.44 15.6873 11.5472 15.4868 11.7045 15.3295C11.8618 15.1722 12.0623 15.065 12.2805 15.0216C12.4988 14.9782 12.725 15.0005 12.9305 15.0856C13.1361 15.1708 13.3118 15.315 13.4354 15.5C13.559 15.685 13.625 15.9025 13.625 16.125C13.625 16.4234 13.5065 16.7095 13.2955 16.9205C13.0845 17.1315 12.7984 17.25 12.5 17.25Z" fill="#FACC15"/>
</svg>
